<?xml version="1.0" standalone="no"?>
<!DOCTYPE svg PUBLIC "-//W3C//DTD SVG 20010904//EN"
 "http://www.w3.org/TR/2001/REC-SVG-20010904/DTD/svg10.dtd">
<svg version="1.0" xmlns="http://www.w3.org/2000/svg"
 width="32.000000pt" height="32.000000pt" viewBox="0 0 32.000000 32.000000"
 preserveAspectRatio="xMidYMid meet">

<g transform="translate(0.000000,32.000000) scale(0.100000,-0.100000)"
fill="#000000" stroke="none">
<path d="M16 304 c-23 -23 -23 -265 0 -288 23 -23 265 -23 288 0 23 23 23 265
0 288 -23 23 -265 23 -288 0z m155 -82 c26 -18 24 -44 -5 -71 -19 -18 -31 -21
-55 -16 -17 3 -29 12 -28 18 1 7 -10 11 -28 10 -18 -1 -21 1 -9 3 29 7 48 48
28 64 -8 7 -14 18 -14 24 1 6 9 1 20 -12 18 -22 21 -23 42 -8 13 9 22 19 21
21 -2 3 -2 15 -1 28 0 12 3 6 5 -13 3 -19 13 -40 24 -48z"/>
</g>
</svg>
