<svg version="1.0" xmlns="http://www.w3.org/2000/svg" width="42.667" height="42.667" viewBox="0 0 32 32"><path d="M1.6 1.6c-2.3 2.3-2.3 26.5 0 28.8 2.3 2.3 26.5 2.3 28.8 0 2.3-2.3 2.3-26.5 0-28.8C28.1-.7 3.9-.7 1.6 1.6zm15.5 8.2c2.6 1.8 2.4 4.4-.5 7.1-1.9 1.8-3.1 2.1-5.5 1.6-1.7-.3-2.9-1.2-2.8-1.8.1-.7-1-1.1-2.8-1-1.8.1-2.1-.1-.9-.3 2.9-.7 4.8-4.8 2.8-6.4C6.6 8.3 6 7.2 6 6.6c.1-.6.9-.1 2 1.2 1.8 2.2 2.1 2.3 4.2.8 1.3-.9 2.2-1.9 2.1-2.1-.2-.3-.2-1.5-.1-2.8 0-1.2.3-.6.5 1.3.3 1.9 1.3 4 2.4 4.8z"/></svg>